<svg width="91" height="91" viewBox="0 0 91 91" fill="none" xmlns="http://www.w3.org/2000/svg">
<g id="icon2.svg">
<path id="Vector" d="M6.72063 58.3629C7.25301 58.3629 7.68495 57.931 7.68495 57.3986V56.9679C7.68495 56.4355 7.25301 56.0037 6.72063 56.0037C6.18827 56.0037 5.75635 56.4355 5.75635 56.9679V57.3986C5.75635 57.931 6.18827 58.3629 6.72063 58.3629Z" fill="#EB6753"/>
<path id="Vector_2" d="M5.75635 74.717C5.75635 75.2492 6.18827 75.6812 6.72063 75.6812C7.25301 75.6812 7.68495 75.2492 7.68495 74.717V60.7472C7.68495 60.2149 7.25301 59.783 6.72063 59.783C6.18827 59.783 5.75635 60.2149 5.75635 60.7472V74.717Z" fill="#EB6753"/>
<path id="Vector_3" d="M63.1316 16.6663C62.7308 16.3148 62.123 16.3537 61.7702 16.7542C61.4192 17.1548 61.4588 17.7637 61.8584 18.1153L73.013 27.9038C73.4126 28.2542 74.0216 28.217 74.3738 27.8159C74.7254 27.4154 74.6852 26.8064 74.2862 26.4549L63.1316 16.6663Z" fill="#EB6753"/>
<path id="Vector_4" d="M59.2426 13.2551C58.8421 12.906 58.2344 12.945 57.8815 13.3455C57.5312 13.746 57.5714 14.355 57.972 14.7065L58.6638 15.313C59.0707 15.6669 59.6765 15.619 60.0248 15.2226C60.3752 14.8221 60.335 14.2131 59.9345 13.8615L59.2426 13.2551Z" fill="#EB6753"/>
<path id="Vector_5" d="M74.0723 53.2692V50.3892H75.1907C75.7175 50.3892 76.1549 49.9649 76.1549 49.4249C76.1549 48.8978 75.7175 48.4607 75.1907 48.4607H73.4549V41.7878H76.3733C79.0991 41.7878 80.3849 38.4063 78.3275 36.6063L44.0248 6.50777C42.9191 5.53061 41.2348 5.53061 40.1162 6.50777L25.7034 19.1592V15.392H27.0535C27.8891 15.392 28.5706 14.7107 28.5706 13.862V9.34912C28.5706 8.5006 27.8891 7.81912 27.0535 7.81912H11.9463C11.1106 7.81912 10.4292 8.5006 10.4292 9.34912V13.862C10.4292 14.7106 11.1106 15.392 11.9463 15.392H13.3091V30.0492L5.83915 36.6063C3.79483 38.4063 5.06767 41.7878 7.79339 41.7878H10.712V83.4962C9.70907 83.522 8.68055 83.5346 7.67771 83.5604C7.13765 83.5862 6.72629 84.0236 6.73908 84.5504C6.75195 85.0778 7.17629 85.4894 7.70339 85.4894H7.71623C8.33345 85.4762 70.9607 85.5146 70.9607 85.502C79.8833 85.4378 87.1091 78.1604 87.1091 69.212C87.1091 61.3436 81.5033 54.7734 74.0723 53.2692ZM12.3577 13.4634V9.7477H26.642V13.4634H12.3577ZM23.7748 15.392V20.8563L15.2377 28.352V15.392H23.7748ZM7.79339 39.8592C6.84196 39.8592 6.39198 38.6763 7.11197 38.0463L41.3891 7.94776C41.7877 7.61344 42.3662 7.61344 42.752 7.94776L77.0549 38.0463C77.7749 38.6763 77.3249 39.8592 76.3733 39.8592H7.79339ZM42.5977 83.4578H23.0291V54.5034C23.0291 53.6934 23.6849 53.0505 24.4948 53.0505H41.1448C41.9419 53.0505 42.5977 53.6934 42.5977 54.5034V83.4578ZM44.5262 83.4578V54.5034C44.5262 52.6392 43.0091 51.122 41.1448 51.122H24.4948C22.6306 51.122 21.1006 52.6392 21.1006 54.5034V83.4578H12.6406V41.8005H71.5265V48.4607H66.4223C65.8817 48.4607 65.4575 48.8978 65.4575 49.4249C65.4575 49.9649 65.8817 50.3892 66.4223 50.3892H67.5917V53.2692C60.1348 54.7863 54.5548 61.4846 54.5548 69.212V69.2246C54.5677 75.3062 58.0134 80.7062 63.0791 83.4578H44.5262ZM72.1433 50.3892V52.9992C71.4491 52.9349 70.2791 52.9349 69.5207 52.9992V50.3892H72.1433ZM70.8449 83.5736C62.8223 83.5736 56.4834 76.9904 56.4834 69.212C56.4834 61.3436 62.9891 54.7477 71.0891 54.8763C78.8033 55.0178 85.1807 61.3178 85.1807 69.212C85.1807 77.132 78.7517 83.5736 70.8449 83.5736Z" fill="#181A20"/>
<path id="Vector_6" d="M72.1436 50.3892V52.9992C71.4494 52.9349 70.2794 52.9349 69.521 52.9992V50.3892H72.1436Z" fill="#DDDDDD"/>
<path id="Vector_7" d="M12.3579 9.7478H26.6422V13.4635H12.3579V9.7478Z" fill="url(#paint0_linear_6108_2180)"/>
<path id="Vector_8" d="M23.7749 15.3921V20.8564L15.2378 28.3521V15.3921H23.7749Z" fill="url(#paint1_linear_6108_2180)"/>
<path id="Vector_9" d="M41.145 53.0505H24.495C23.685 53.0505 23.0293 53.6934 23.0293 54.5034V83.4578H42.5978V54.5034C42.5978 53.6934 41.9421 53.0505 41.145 53.0505ZM38.715 69.2636H37.4036C36.8636 69.2636 36.4393 68.8394 36.4393 68.2994C36.4393 67.772 36.8636 67.3346 37.4036 67.3346H38.715C39.2421 67.3346 39.6793 67.772 39.6793 68.2994C39.6793 68.8394 39.2421 69.2636 38.715 69.2636Z" fill="url(#paint2_linear_6108_2180)"/>
<path id="Vector_10" d="M42.0966 19.4036C37.9695 19.4036 34.6138 22.7592 34.6138 26.8865C34.6138 31.0007 37.9695 34.3436 42.0966 34.3436C46.2109 34.3436 49.5538 31.0007 49.5538 26.8865C49.5538 22.7592 46.2109 19.4036 42.0966 19.4036ZM42.0966 32.415C39.0366 32.415 36.5423 29.9336 36.5423 26.8865C36.5423 23.8265 39.0366 21.3321 42.0966 21.3321C45.1438 21.3321 47.6252 23.8264 47.6252 26.8865C47.6252 29.9336 45.1438 32.415 42.0966 32.415Z" fill="#181A20"/>
<path id="Vector_11" d="M47.6248 26.8864C47.6248 29.9335 45.1434 32.4149 42.0962 32.4149C39.0363 32.4149 36.542 29.9335 36.542 26.8864C36.542 23.8264 39.0363 21.332 42.0962 21.332C45.1434 21.332 47.6248 23.8264 47.6248 26.8864Z" fill="#DDDDDD"/>
<path id="Vector_12" d="M39.6795 68.2995C39.6795 68.8395 39.2423 69.2637 38.7152 69.2637H37.4037C36.8638 69.2637 36.4395 68.8395 36.4395 68.2995C36.4395 67.7721 36.8638 67.3347 37.4037 67.3347H38.7152C39.2423 67.3347 39.6795 67.7721 39.6795 68.2995Z" fill="#181A20"/>
<path id="Vector_13" d="M58.3704 54.2057C58.5775 54.2057 58.7872 54.1391 58.9642 53.9998C59.1124 53.8843 59.2631 53.7688 59.415 53.6582C59.8457 53.3444 59.9398 52.7417 59.6272 52.311C59.3133 51.8803 58.7106 51.7837 58.2799 52.0989C58.108 52.2244 57.9397 52.3525 57.774 52.483C57.3546 52.8107 57.2818 53.4172 57.6108 53.8366C57.8004 54.0789 58.0841 54.2057 58.3704 54.2057Z" fill="#EB6753"/>
<path id="Vector_14" d="M50.8055 65.909C50.8733 65.924 50.941 65.93 51.0088 65.93C51.4533 65.93 51.8538 65.6204 51.9506 65.168C52.6788 61.7696 54.3261 58.6191 56.7155 56.0589C57.0796 55.6697 57.0582 55.0595 56.669 54.6966C56.2798 54.3325 55.6708 54.3538 55.3067 54.7431C52.6788 57.5593 50.8657 61.025 50.0646 64.7636C49.9529 65.285 50.2844 65.7974 50.8055 65.909Z" fill="#EB6753"/>
<path id="Vector_15" d="M70.8406 58.2852C70.3078 58.2852 69.8764 58.7171 69.8764 59.2495C69.8764 59.7819 70.3078 60.2137 70.8406 60.2137C75.8038 60.2137 79.8418 64.2519 79.8418 69.2151C79.8418 74.1831 75.8038 78.2265 70.8406 78.2265C67.6726 78.2265 64.7938 76.6089 63.1426 73.8993C62.8648 73.4463 62.2726 73.3017 61.8166 73.5783C61.3618 73.8555 61.2178 74.4495 61.495 74.9043C63.5002 78.1923 66.9946 80.1549 70.8406 80.1549C76.867 80.1549 81.7702 75.2469 81.7702 69.2151C81.7702 63.1881 76.867 58.2852 70.8406 58.2852Z" fill="#181A20"/>
<path id="Vector_16" d="M71.7968 67.6047V63.7347C71.7968 63.2079 71.372 62.7705 70.8326 62.7705C70.3052 62.7705 69.8678 63.2079 69.8678 63.7347V67.6047C68.5052 68.0163 67.502 69.2763 67.502 70.7805C67.502 72.6195 68.9936 74.1105 70.8326 74.1105C72.671 74.1105 74.1752 72.6195 74.1752 70.7805C74.1752 69.2763 73.1726 68.0163 71.7968 67.6047ZM70.8326 72.1821C70.061 72.1821 69.431 71.5521 69.431 70.7805C69.431 70.0095 70.061 69.3663 70.8326 69.3663C71.6035 69.3663 72.2468 70.0095 72.2468 70.7805C72.2468 71.5521 71.6035 72.1821 70.8326 72.1821Z" fill="#181A20"/>
<path id="Vector_17" d="M72.2465 70.7804C72.2465 71.552 71.6033 72.182 70.8323 72.182C70.0607 72.182 69.4307 71.552 69.4307 70.7804C69.4307 70.0088 70.0607 69.3662 70.8323 69.3662C71.6033 69.3662 72.2465 70.0088 72.2465 70.7804Z" fill="#DDDDDD"/>
</g>
<defs>
<linearGradient id="paint0_linear_6108_2180" x1="19.5001" y1="9.7478" x2="19.5001" y2="13.4635" gradientUnits="userSpaceOnUse">
<stop stop-color="#DDDDDD" stop-opacity="0"/>
<stop offset="1" stop-color="#DDDDDD"/>
</linearGradient>
<linearGradient id="paint1_linear_6108_2180" x1="19.5063" y1="15.3921" x2="19.5063" y2="28.3521" gradientUnits="userSpaceOnUse">
<stop stop-color="#DDDDDD" stop-opacity="0"/>
<stop offset="1" stop-color="#DDDDDD"/>
</linearGradient>
<linearGradient id="paint2_linear_6108_2180" x1="32.8136" y1="53.0505" x2="32.8136" y2="83.4578" gradientUnits="userSpaceOnUse">
<stop stop-color="#DDDDDD" stop-opacity="0"/>
<stop offset="1" stop-color="#DDDDDD"/>
</linearGradient>
</defs>
</svg>
