<svg width="91" height="91" viewBox="0 0 91 91" fill="none" xmlns="http://www.w3.org/2000/svg">
<g id="icon1.svg">
<path id="Vector" d="M27.6561 44.8455H17.3227C16.7903 44.8455 16.3584 45.2774 16.3584 45.8097V56.3227C16.3584 56.8551 16.7903 57.287 17.3227 57.287C17.855 57.287 18.287 56.8551 18.287 56.3227V46.774H27.6561C28.1885 46.774 28.6204 46.3421 28.6204 45.8097C28.6204 45.2774 28.1885 44.8455 27.6561 44.8455Z" fill="#EB6753"/>
<path id="Vector_2" d="M17.3227 59.4077C16.7903 59.4077 16.3584 59.8396 16.3584 60.372V61.6792C16.3584 62.2114 16.7903 62.6434 17.3227 62.6434C17.855 62.6434 18.287 62.2114 18.287 61.6792V60.372C18.287 59.8396 17.855 59.4077 17.3227 59.4077Z" fill="#EB6753"/>
<path id="Vector_3" d="M61.3862 13.5752C61.0346 13.9758 61.0748 14.586 61.4738 14.9363L75.5954 27.3263C75.995 27.6767 76.604 27.6395 76.9562 27.2384C77.3078 26.8379 77.2676 26.2277 76.8686 25.8774L62.747 13.4873C62.3468 13.1358 61.739 13.1735 61.3862 13.5752Z" fill="#EB6753"/>
<path id="Vector_4" d="M57.74 10.3784C57.3896 10.7789 57.4298 11.3879 57.8304 11.7394L58.4192 12.2555C58.8261 12.6094 59.432 12.5615 59.7803 12.1651C60.1306 11.7646 60.0904 11.1556 59.6899 10.804L59.101 10.288C58.7005 9.93894 58.0915 9.97656 57.74 10.3784Z" fill="#EB6753"/>
<path id="Vector_5" d="M43.6095 18.5789C39.3666 18.5789 35.9209 22.0374 35.9209 26.2803C35.9209 30.5103 39.3666 33.956 43.6095 33.956C47.8394 33.956 51.2852 30.5103 51.2852 26.2803C51.2852 22.0374 47.8394 18.5789 43.6095 18.5789ZM43.6095 32.0274C40.4338 32.0274 37.8495 29.4432 37.8495 26.2803C37.8495 23.0917 40.4338 20.5074 43.6095 20.5074C46.7723 20.5074 49.3566 23.0917 49.3566 26.2803C49.3566 29.4432 46.7723 32.0274 43.6095 32.0274Z" fill="#181A20"/>
<path id="Vector_6" d="M32.2439 69.056C32.2439 69.596 31.8068 70.0202 31.2796 70.0202H29.9296C29.3897 70.0202 28.9653 69.596 28.9653 69.056C28.9653 68.5286 29.3897 68.0918 29.9296 68.0918H31.2796C31.8068 68.0918 32.2439 68.5286 32.2439 69.056Z" fill="#181A20"/>
<path id="Vector_7" d="M69.1719 58.7659H59.7953C59.2629 58.7659 58.8311 59.1978 58.8311 59.7302C58.8311 60.2625 59.2629 60.6944 59.7953 60.6944H69.1719C69.7041 60.6944 70.1361 60.2625 70.1361 59.7302C70.1361 59.1978 69.7041 58.7659 69.1719 58.7659Z" fill="#EB6753"/>
<path id="Vector_8" d="M56.4743 58.7659H56.2821C55.7498 58.7659 55.3179 59.1978 55.3179 59.7302C55.3179 60.2625 55.7498 60.6944 56.2821 60.6944H56.4743C57.0066 60.6944 57.4385 60.2625 57.4385 59.7302C57.4385 59.1978 57.0066 58.7659 56.4743 58.7659Z" fill="#EB6753"/>
<path id="Vector_9" d="M84.5725 63.8872H75.9709V41.6446H79.0177C81.8209 41.6446 83.1193 38.1731 81.0235 36.3346L45.5893 5.24601C44.4451 4.24319 42.7351 4.24319 41.5908 5.24601L26.6508 18.3732V14.3746H28.0651C28.9265 14.3746 29.6208 13.6803 29.6208 12.8317V8.16462C29.6208 7.31598 28.9265 6.62174 28.0651 6.62174H12.4822C11.6208 6.62174 10.9265 7.31598 10.9265 8.16462V12.8317C10.9265 13.6803 11.6208 14.3746 12.4822 14.3746H13.9094V29.5589L6.18223 36.3346C4.0865 38.186 5.39795 41.6446 8.18795 41.6446H11.2351V84.8578H7.85363C7.32653 84.8578 6.88937 85.282 6.88937 85.822C6.88937 86.3488 7.32653 86.7862 7.85363 86.7862H7.93079H84.5725C85.8067 86.7862 86.8092 85.7704 86.8092 84.5362V66.1246C86.8092 64.8904 85.8067 63.8872 84.5725 63.8872ZM12.8551 12.446V8.5503H27.6922V12.446H12.8551ZM24.7222 14.3746V20.0575L15.838 27.8617V14.3746H24.7222ZM8.18795 39.716C7.17215 39.716 6.69647 38.456 7.45505 37.7874L42.8636 6.69888C43.2751 6.3389 43.9051 6.3389 44.3165 6.69888L79.7509 37.7874C80.5093 38.456 80.0467 39.716 79.0177 39.716H8.18795ZM23.8093 54.7975V84.8578H13.1636V41.6446H74.0425V63.8872H47.9422V54.7975C47.9422 52.8946 46.3865 51.3389 44.4836 51.3389H27.2808C25.3651 51.3389 23.8093 52.8946 23.8093 54.7975ZM46.0136 63.913C44.9337 64.0672 44.0851 65.032 44.0851 66.1246C44.098 73.7746 44.0593 84.472 44.1108 84.8578H25.7379V54.7975C25.7379 53.9617 26.4322 53.2675 27.2807 53.2675H44.4836C45.3194 53.2675 46.0136 53.9617 46.0136 54.7975V63.913ZM84.8809 84.5362C84.8809 84.7162 84.7393 84.8578 84.5725 84.8578H46.3222C46.2322 84.8578 46.0265 84.7162 46.0265 84.5488V66.1246C46.0265 65.9578 46.1936 65.8162 46.3222 65.8162C47.068 65.8288 74.2477 65.8162 84.5725 65.8162C84.7393 65.8162 84.8809 65.9578 84.8809 66.1246V84.5362Z" fill="#181A20"/>
<path id="Vector_10" d="M44.4835 53.2673H27.2807C26.4322 53.2673 25.7378 53.9616 25.7378 54.7973V84.8576H44.1107C44.0592 84.4718 44.0979 73.7744 44.085 66.1244C44.085 65.0318 44.9336 64.067 46.0135 63.9128V54.7973C46.0135 53.9616 45.3193 53.2673 44.4835 53.2673ZM31.2792 70.0202H29.9292C29.3893 70.0202 28.965 69.596 28.965 69.056C28.965 68.5286 29.3893 68.0918 29.9292 68.0918H31.2792C31.8064 68.0918 32.2435 68.5286 32.2435 69.056C32.2435 69.596 31.8064 70.0202 31.2792 70.0202Z" fill="url(#paint0_linear_6108_2147)"/>
<path id="Vector_11" d="M12.855 8.54956H27.6921V12.4452H12.855V8.54956Z" fill="url(#paint1_linear_6108_2147)"/>
<path id="Vector_12" d="M24.7221 14.3745V20.0574L15.8379 27.8617V14.3745H24.7221Z" fill="url(#paint2_linear_6108_2147)"/>
<path id="Vector_13" d="M49.3567 26.2802C49.3567 29.4431 46.7725 32.0274 43.6096 32.0274C40.4339 32.0274 37.8496 29.4431 37.8496 26.2802C37.8496 23.0916 40.4339 20.5073 43.6096 20.5073C46.7725 20.5073 49.3567 23.0916 49.3567 26.2802Z" fill="#DDDDDD"/>
<path id="Vector_14" d="M53.9853 71.9229C52.1081 71.9229 50.5781 73.4529 50.5781 75.3303C50.5781 77.2203 52.1081 78.7503 53.9853 78.7503C55.8753 78.7503 57.3924 77.2203 57.3924 75.3303C57.3924 73.4529 55.8753 71.9229 53.9853 71.9229ZM53.9853 76.8219C53.1753 76.8219 52.5067 76.1529 52.5067 75.3303C52.5067 74.5203 53.1753 73.8518 53.9853 73.8518C54.8082 73.8518 55.4638 74.5203 55.4638 75.3303C55.4638 76.1529 54.8082 76.8219 53.9853 76.8219Z" fill="#181A20"/>
<path id="Vector_15" d="M55.4639 75.3302C55.4639 76.1528 54.8083 76.8218 53.9854 76.8218C53.1754 76.8218 52.5068 76.1528 52.5068 75.3302C52.5068 74.5202 53.1754 73.8518 53.9854 73.8518C54.8083 73.8518 55.4639 74.5202 55.4639 75.3302Z" fill="#DDDDDD"/>
<path id="Vector_16" d="M76.9092 71.9229C75.0324 71.9229 73.5024 73.4529 73.5024 75.3303C73.5024 77.2203 75.0324 78.7503 76.9092 78.7503C78.7866 78.7503 80.3166 77.2203 80.3166 75.3303C80.3166 73.4529 78.7866 71.9229 76.9092 71.9229ZM76.9092 76.8219C76.0866 76.8219 75.4308 76.1529 75.4308 75.3303C75.4308 74.5203 76.0866 73.8518 76.9092 73.8518C77.7324 73.8518 78.3876 74.5203 78.3876 75.3303C78.3876 76.1529 77.7324 76.8219 76.9092 76.8219Z" fill="#181A20"/>
<path id="Vector_17" d="M78.388 75.3302C78.388 76.1528 77.7328 76.8218 76.9096 76.8218C76.087 76.8218 75.4312 76.1528 75.4312 75.3302C75.4312 74.5202 76.087 73.8518 76.9096 73.8518C77.7328 73.8518 78.388 74.5202 78.388 75.3302Z" fill="#DDDDDD"/>
<path id="Vector_18" d="M65.4488 70.8644C66.416 70.8644 67.2032 71.6504 67.2032 72.6176C67.2032 73.1498 67.6352 73.5818 68.1674 73.5818C68.6996 73.5818 69.1316 73.1498 69.1316 72.6176C69.1316 70.9232 67.9742 69.5072 66.4136 69.0806V68.3648C66.4136 67.8326 65.9816 67.4006 65.4488 67.4006C64.9166 67.4006 64.4846 67.8326 64.4846 68.3648V69.0806C62.924 69.5072 61.7666 70.9232 61.7666 72.6176C61.7666 74.648 63.419 76.2998 65.4488 76.2998C66.416 76.2998 67.2032 77.087 67.2032 78.0542C67.2032 79.0208 66.416 79.8068 65.4488 79.8068C64.4822 79.8068 63.695 79.0208 63.695 78.0542C63.695 77.522 63.263 77.09 62.7308 77.09C62.1986 77.09 61.7666 77.522 61.7666 78.0542C61.7666 79.7486 62.924 81.1646 64.4846 81.5912V82.307C64.4846 82.8392 64.9166 83.2712 65.4488 83.2712C65.9816 83.2712 66.4136 82.8392 66.4136 82.307V81.5912C67.9742 81.1646 69.1316 79.7486 69.1316 78.0542C69.1316 76.0238 67.4792 74.3714 65.4488 74.3714C64.4822 74.3714 63.695 73.5842 63.695 72.6176C63.695 71.6504 64.4822 70.8644 65.4488 70.8644Z" fill="#181A20"/>
</g>
<defs>
<linearGradient id="paint0_linear_6108_2147" x1="35.8757" y1="53.2673" x2="35.8757" y2="84.8576" gradientUnits="userSpaceOnUse">
<stop stop-color="#DDDDDD" stop-opacity="0"/>
<stop offset="1" stop-color="#DDDDDD"/>
</linearGradient>
<linearGradient id="paint1_linear_6108_2147" x1="20.2736" y1="8.54956" x2="20.2736" y2="12.4452" gradientUnits="userSpaceOnUse">
<stop stop-color="#DDDDDD" stop-opacity="0"/>
<stop offset="1" stop-color="#DDDDDD"/>
</linearGradient>
<linearGradient id="paint2_linear_6108_2147" x1="20.28" y1="14.3745" x2="20.28" y2="27.8617" gradientUnits="userSpaceOnUse">
<stop stop-color="#DDDDDD" stop-opacity="0"/>
<stop offset="1" stop-color="#DDDDDD"/>
</linearGradient>
</defs>
</svg>
