<svg width="91" height="91" viewBox="0 0 91 91" fill="none" xmlns="http://www.w3.org/2000/svg">
<g id="icon3.svg">
<path id="Vector" d="M35.393 44.7388H21.6708C21.1385 44.7388 20.7065 45.1707 20.7065 45.7031V60.8944C20.7065 61.4266 21.1385 61.8586 21.6708 61.8586C22.2032 61.8586 22.6351 61.4266 22.6351 60.8944V46.6674H35.393C35.9254 46.6674 36.3574 46.2355 36.3574 45.7031C36.3574 45.1707 35.9254 44.7388 35.393 44.7388Z" fill="#EB6753"/>
<path id="Vector_2" d="M21.6708 63.5498C21.1385 63.5498 20.7065 63.9818 20.7065 64.514V66.0458C20.7065 66.578 21.1385 67.01 21.6708 67.01C22.2032 67.01 22.6351 66.578 22.6351 66.0458V64.514C22.6351 63.9818 22.2032 63.5498 21.6708 63.5498Z" fill="#EB6753"/>
<path id="Vector_3" d="M75.9948 25.4328C76.263 25.4328 76.53 25.3223 76.7202 25.1051C77.0718 24.7046 77.0322 24.0956 76.6314 23.744L65.6958 14.1476C65.2962 13.796 64.686 13.8362 64.3356 14.2355C63.984 14.636 64.0236 15.245 64.4238 15.5966L75.3594 25.193C75.5424 25.3537 75.7698 25.4328 75.9948 25.4328Z" fill="#EB6753"/>
<path id="Vector_4" d="M62.4094 13.5124C62.6776 13.5124 62.9434 13.4019 63.1342 13.1847C63.4858 12.7842 63.4463 12.1752 63.0467 11.8237L62.566 11.4018C62.1658 11.0502 61.5574 11.0904 61.2052 11.4896C60.8536 11.8902 60.8932 12.4991 61.2928 12.8507L61.7734 13.2726C61.9564 13.4333 62.1832 13.5124 62.4094 13.5124Z" fill="#EB6753"/>
<path id="Vector_5" d="M76.2309 51.8595V41.6381H81.3735C84.1635 41.6381 85.4625 38.1795 83.3667 36.3409L47.9324 5.25241C46.801 4.24952 45.0781 4.24952 43.9466 5.25241L28.9938 18.3666V14.3681H30.421C31.2695 14.3681 31.9638 13.6867 31.9638 12.8252V8.15805C31.9638 7.30953 31.2695 6.61527 30.421 6.61527H14.8252C13.9767 6.61527 13.2824 7.30953 13.2824 8.15805V12.8252C13.2824 13.6867 13.9767 14.3681 14.8252 14.3681H16.2524V29.5524L8.53808 36.3409C6.42951 38.1795 7.74092 41.6381 10.5309 41.6381H15.6867V84.8511H12.961C12.4338 84.8511 11.9967 85.2879 11.9967 85.8153C11.9967 86.3421 12.4338 86.7795 12.961 86.7795H78.9441C79.4835 86.7795 79.9083 86.3421 79.9083 85.8153C79.9083 85.2879 79.4835 84.8511 78.9441 84.8511H76.2309V74.5011C80.9367 72.8937 84.3435 68.4321 84.3435 63.1737C84.3435 57.9281 80.9367 53.4667 76.2309 51.8595ZM15.2109 12.4395V8.54385H30.0352V12.4395H15.2109ZM27.0652 14.3809V20.0638L18.1809 27.8552V14.3809H27.0652ZM10.5309 39.7095C9.51524 39.7095 9.03956 38.4495 9.79808 37.7809L45.2195 6.69243C45.4252 6.5124 45.6824 6.42239 45.9395 6.42239C46.1966 6.42239 46.4538 6.5124 46.6595 6.69243L82.0935 37.7809C82.8525 38.4495 82.3893 39.7095 81.3735 39.7095H10.5309ZM74.3025 84.8511C50.9795 84.8511 52.368 84.8511 17.6152 84.8511V41.6381H74.3025V51.371C69.1851 50.5353 63.8751 53.1581 61.5483 58.0953H46.9166V53.8395C46.9166 51.5895 45.1038 49.7766 42.8538 49.7766C40.6295 49.7766 38.8038 51.6024 38.8038 53.8395V72.5337C38.8038 74.7453 40.5909 76.5969 42.8538 76.5969C45.1038 76.5969 46.9166 74.7711 46.9166 72.5337V68.2653H61.5483C63.5793 72.5727 67.8735 75.1569 72.3735 75.1569C72.9909 75.1569 73.7883 75.0795 74.3025 74.9895V84.8511ZM60.8152 66.3369H40.7323V60.0238C40.7323 60.0238 43.1238 60.0367 60.8152 60.0238C60.3138 61.8879 60.2366 64.1895 60.8152 66.3369ZM44.988 68.2653V72.5337C44.988 73.7037 44.0366 74.6679 42.8538 74.6679C41.6966 74.6679 40.7323 73.7169 40.7323 72.5337V68.2653H44.988ZM40.7323 58.0953V53.8395C40.7323 52.6567 41.6838 51.7052 42.8538 51.7052C44.0366 51.7052 44.988 52.6695 44.988 53.8395V58.0953H40.7323ZM72.3735 73.2279C69.7635 73.2279 67.3983 72.2121 65.5983 70.5795C63.8109 68.9469 62.6151 66.6837 62.3709 64.1895C61.7793 58.2495 66.4983 53.1453 72.3735 53.1453C77.8767 53.1453 82.4151 57.6324 82.4151 63.1737C82.4151 68.7795 77.8251 73.2279 72.3735 73.2279Z" fill="#181A20"/>
<path id="Vector_6" d="M72.3736 53.1453C66.4984 53.1453 61.7794 58.2495 62.371 64.1895C62.6152 66.6837 63.811 68.9469 65.5984 70.5795C67.3978 72.2127 69.7636 73.2279 72.3736 73.2279C77.8252 73.2279 82.4152 68.7795 82.4152 63.1737C82.4152 57.6324 77.8768 53.1453 72.3736 53.1453ZM74.9584 67.4679C72.5926 67.4679 70.6768 65.5395 70.6768 63.1869C70.6768 60.8211 72.5926 58.8924 74.9584 58.8924C77.3236 58.8924 79.2526 60.8211 79.2526 63.1869C79.2526 65.5395 77.3236 67.4679 74.9584 67.4679Z" fill="url(#paint0_linear_6108_2212)"/>
<path id="Vector_7" d="M44.9881 53.8396V58.0954H40.7324V53.8396C40.7324 52.6568 41.6838 51.7053 42.8538 51.7053C44.0367 51.7053 44.9881 52.6696 44.9881 53.8396Z" fill="#DDDDDD"/>
<path id="Vector_8" d="M44.9881 68.2654V72.5338C44.9881 73.7038 44.0367 74.668 42.8538 74.668C41.6967 74.668 40.7324 73.717 40.7324 72.5338V68.2654H44.9881Z" fill="#DDDDDD"/>
<path id="Vector_9" d="M15.2109 8.54443H30.0352V12.4402H15.2109V8.54443Z" fill="url(#paint1_linear_6108_2212)"/>
<path id="Vector_10" d="M27.0654 14.3811V20.0639L18.1812 27.8554V14.3811H27.0654Z" fill="url(#paint2_linear_6108_2212)"/>
<path id="Vector_11" d="M45.9527 18.6624C41.7612 18.6624 38.3413 22.0823 38.3413 26.2738C38.3413 30.4652 41.7612 33.8723 45.9527 33.8723C50.1441 33.8723 53.5513 30.4652 53.5513 26.2738C53.5513 22.0823 50.1441 18.6624 45.9527 18.6624ZM45.9527 31.9437C42.8284 31.9437 40.2699 29.398 40.2699 26.2738C40.2699 23.1366 42.8284 20.5909 45.9527 20.5909C49.077 20.5909 51.6227 23.1366 51.6227 26.2738C51.6228 29.398 49.077 31.9437 45.9527 31.9437Z" fill="#181A20"/>
<path id="Vector_12" d="M51.6224 26.2739C51.6224 29.3982 49.0766 31.9439 45.9524 31.9439C42.8281 31.9439 40.2695 29.3982 40.2695 26.2739C40.2695 23.1367 42.8281 20.5911 45.9524 20.5911C49.0766 20.5911 51.6224 23.1367 51.6224 26.2739Z" fill="#DDDDDD"/>
<path id="Vector_13" d="M52.1879 73.2878H52.7736C53.306 73.2878 53.7379 72.8564 53.7379 72.3236C53.7379 71.7914 53.306 71.3594 52.7736 71.3594H52.1879C51.6555 71.3594 51.2236 71.7914 51.2236 72.3236C51.2236 72.8564 51.6555 73.2878 52.1879 73.2878Z" fill="#EB6753"/>
<path id="Vector_14" d="M56.0542 73.2878H61.3606C61.8934 73.2878 62.3254 72.8564 62.3254 72.3236C62.3254 71.7914 61.8934 71.3594 61.3606 71.3594H56.0542C55.5218 71.3594 55.0898 71.7914 55.0898 72.3236C55.0898 72.8564 55.5218 73.2878 56.0542 73.2878Z" fill="#EB6753"/>
<path id="Vector_15" d="M74.9584 58.8923C72.5926 58.8923 70.6768 60.821 70.6768 63.1868C70.6768 65.5394 72.5926 67.4678 74.9584 67.4678C77.3236 67.4678 79.2526 65.5394 79.2526 63.1868C79.2526 60.821 77.3236 58.8923 74.9584 58.8923ZM74.9584 65.5394C73.6594 65.5394 72.6052 64.4852 72.6052 63.1868C72.6052 61.8878 73.6594 60.821 74.9584 60.821C76.2568 60.821 77.3236 61.8878 77.3236 63.1868C77.3236 64.4852 76.2568 65.5394 74.9584 65.5394Z" fill="#181A20"/>
</g>
<defs>
<linearGradient id="paint0_linear_6108_2212" x1="72.3682" y1="53.1453" x2="72.3682" y2="73.2279" gradientUnits="userSpaceOnUse">
<stop stop-color="#DDDDDD" stop-opacity="0"/>
<stop offset="1" stop-color="#DDDDDD"/>
</linearGradient>
<linearGradient id="paint1_linear_6108_2212" x1="22.623" y1="8.54443" x2="22.623" y2="12.4402" gradientUnits="userSpaceOnUse">
<stop stop-color="#DDDDDD" stop-opacity="0"/>
<stop offset="1" stop-color="#DDDDDD"/>
</linearGradient>
<linearGradient id="paint2_linear_6108_2212" x1="22.6233" y1="14.3811" x2="22.6233" y2="27.8554" gradientUnits="userSpaceOnUse">
<stop stop-color="#DDDDDD" stop-opacity="0"/>
<stop offset="1" stop-color="#DDDDDD"/>
</linearGradient>
</defs>
</svg>
